<mxfile host="app.diagrams.net" modified="2023-03-23T13:23:33.838Z" agent="5.0 (Macintosh; Intel Mac OS X 10_15_7) AppleWebKit/537.36 (KHTML, like Gecko) Chrome/111.0.0.0 Safari/537.36" etag="SGF3lR5oQb6v_Tdofkkh" version="21.0.10" type="github" pages="6">
  <diagram name="第 1 页" id="6T8HIoTYURvN4n_ZB2KN">
    <mxGraphModel dx="1194" dy="1719" grid="1" gridSize="10" guides="1" tooltips="1" connect="1" arrows="1" fold="1" page="1" pageScale="1" pageWidth="827" pageHeight="1169" math="0" shadow="0">
      <root>
        <mxCell id="0" />
        <mxCell id="1" parent="0" />
        <mxCell id="_doftRVdzliZ_Bcnn4xc-2" value="" style="strokeWidth=1;shadow=0;dashed=0;align=center;html=1;shape=mxgraph.mockup.containers.browserWindow;rSize=0;strokeColor=#666666;strokeColor2=#008cff;strokeColor3=#c4c4c4;mainText=,;recursiveResize=0;" parent="1" vertex="1">
          <mxGeometry x="40" y="-20" width="760" height="530" as="geometry" />
        </mxCell>
        <mxCell id="_doftRVdzliZ_Bcnn4xc-3" value="Login Page" style="strokeWidth=1;shadow=0;dashed=0;align=center;html=1;shape=mxgraph.mockup.containers.anchor;fontSize=17;fontColor=#666666;align=left;whiteSpace=wrap;" parent="_doftRVdzliZ_Bcnn4xc-2" vertex="1">
          <mxGeometry x="60" y="12" width="110" height="26" as="geometry" />
        </mxCell>
        <mxCell id="_doftRVdzliZ_Bcnn4xc-4" value="https://www.draw.io" style="strokeWidth=1;shadow=0;dashed=0;align=center;html=1;shape=mxgraph.mockup.containers.anchor;rSize=0;fontSize=17;fontColor=#666666;align=left;" parent="_doftRVdzliZ_Bcnn4xc-2" vertex="1">
          <mxGeometry x="130" y="60" width="250" height="26" as="geometry" />
        </mxCell>
        <mxCell id="_doftRVdzliZ_Bcnn4xc-10" value="" style="strokeWidth=1;shadow=0;dashed=0;align=center;html=1;shape=mxgraph.mockup.forms.rrect;rSize=0;strokeColor=#999999;fillColor=#ffffff;" parent="_doftRVdzliZ_Bcnn4xc-2" vertex="1">
          <mxGeometry x="165" y="170" width="430" height="300" as="geometry" />
        </mxCell>
        <mxCell id="_doftRVdzliZ_Bcnn4xc-12" value="" style="shape=line;strokeColor=#ddeeff;strokeWidth=2;html=1;resizeWidth=1;" parent="_doftRVdzliZ_Bcnn4xc-10" vertex="1">
          <mxGeometry width="387.00000000000006" height="10" relative="1" as="geometry">
            <mxPoint x="22" y="30" as="offset" />
          </mxGeometry>
        </mxCell>
        <mxCell id="_doftRVdzliZ_Bcnn4xc-13" value="User Name:" style="strokeWidth=1;shadow=0;dashed=0;align=center;html=1;shape=mxgraph.mockup.forms.anchor;fontSize=12;fontColor=#666666;align=left;resizeWidth=1;spacingLeft=0;" parent="_doftRVdzliZ_Bcnn4xc-10" vertex="1">
          <mxGeometry width="215" height="20" relative="1" as="geometry">
            <mxPoint x="10" y="40" as="offset" />
          </mxGeometry>
        </mxCell>
        <mxCell id="_doftRVdzliZ_Bcnn4xc-14" value="jennyqiyiz&amp;nbsp;" style="strokeWidth=1;shadow=0;dashed=0;align=center;html=1;shape=mxgraph.mockup.forms.rrect;rSize=0;strokeColor=#999999;fontColor=#666666;align=left;spacingLeft=5;resizeWidth=1;" parent="_doftRVdzliZ_Bcnn4xc-10" vertex="1">
          <mxGeometry width="410" height="25" relative="1" as="geometry">
            <mxPoint x="10" y="60" as="offset" />
          </mxGeometry>
        </mxCell>
        <mxCell id="_doftRVdzliZ_Bcnn4xc-15" value="Password:" style="strokeWidth=1;shadow=0;dashed=0;align=center;html=1;shape=mxgraph.mockup.forms.anchor;fontSize=12;fontColor=#666666;align=left;resizeWidth=1;spacingLeft=0;" parent="_doftRVdzliZ_Bcnn4xc-10" vertex="1">
          <mxGeometry width="215" height="20" relative="1" as="geometry">
            <mxPoint x="10" y="95" as="offset" />
          </mxGeometry>
        </mxCell>
        <mxCell id="_doftRVdzliZ_Bcnn4xc-16" value="********" style="strokeWidth=1;shadow=0;dashed=0;align=center;html=1;shape=mxgraph.mockup.forms.rrect;rSize=0;strokeColor=#999999;fontColor=#666666;align=left;spacingLeft=5;resizeWidth=1;" parent="_doftRVdzliZ_Bcnn4xc-10" vertex="1">
          <mxGeometry width="410" height="25" relative="1" as="geometry">
            <mxPoint x="10" y="115" as="offset" />
          </mxGeometry>
        </mxCell>
        <mxCell id="_doftRVdzliZ_Bcnn4xc-17" value="SIGN IN" style="strokeWidth=1;shadow=0;dashed=0;align=center;html=1;shape=mxgraph.mockup.forms.rrect;rSize=5;strokeColor=none;fontColor=#ffffff;fillColor=#66bbff;fontSize=16;fontStyle=1;" parent="_doftRVdzliZ_Bcnn4xc-10" vertex="1">
          <mxGeometry y="1" width="80" height="30" relative="1" as="geometry">
            <mxPoint x="175" y="-140" as="offset" />
          </mxGeometry>
        </mxCell>
        <mxCell id="_doftRVdzliZ_Bcnn4xc-18" value="Forgot Password?" style="strokeWidth=1;shadow=0;dashed=0;align=center;html=1;shape=mxgraph.mockup.forms.anchor;fontSize=12;fontColor=#9999ff;align=left;spacingLeft=0;fontStyle=4;resizeWidth=1;" parent="_doftRVdzliZ_Bcnn4xc-10" vertex="1">
          <mxGeometry y="1" width="110" height="19" relative="1" as="geometry">
            <mxPoint x="170" y="-100" as="offset" />
          </mxGeometry>
        </mxCell>
        <mxCell id="_doftRVdzliZ_Bcnn4xc-19" value="" style="shape=line;strokeColor=#ddeeff;strokeWidth=2;html=1;resizeWidth=1;" parent="_doftRVdzliZ_Bcnn4xc-10" vertex="1">
          <mxGeometry y="1" width="387.00000000000006" height="10" relative="1" as="geometry">
            <mxPoint x="22" y="-80" as="offset" />
          </mxGeometry>
        </mxCell>
        <mxCell id="_doftRVdzliZ_Bcnn4xc-21" value="SIGN UP" style="strokeWidth=1;shadow=0;dashed=0;align=center;html=1;shape=mxgraph.mockup.forms.rrect;rSize=5;strokeColor=none;fontColor=#ffffff;fillColor=#66bbff;fontSize=16;fontStyle=1;" parent="_doftRVdzliZ_Bcnn4xc-10" vertex="1">
          <mxGeometry y="1" width="80" height="30" relative="1" as="geometry">
            <mxPoint x="175" y="-60" as="offset" />
          </mxGeometry>
        </mxCell>
      </root>
    </mxGraphModel>
  </diagram>
  <diagram id="s1KS1c9sfK1FN9_0CdLG" name="第 2 页">
    <mxGraphModel dx="1194" dy="550" grid="1" gridSize="10" guides="1" tooltips="1" connect="1" arrows="1" fold="1" page="1" pageScale="1" pageWidth="827" pageHeight="1169" math="0" shadow="0">
      <root>
        <mxCell id="0" />
        <mxCell id="1" parent="0" />
        <mxCell id="P6iFAdVfE9VBDvEstXAy-1" value="" style="strokeWidth=1;shadow=0;dashed=0;align=center;html=1;shape=mxgraph.mockup.containers.browserWindow;rSize=0;strokeColor=#666666;strokeColor2=#008cff;strokeColor3=#c4c4c4;mainText=,;recursiveResize=0;" parent="1" vertex="1">
          <mxGeometry x="36" y="30" width="760" height="530" as="geometry" />
        </mxCell>
        <mxCell id="P6iFAdVfE9VBDvEstXAy-2" value="Home Page" style="strokeWidth=1;shadow=0;dashed=0;align=center;html=1;shape=mxgraph.mockup.containers.anchor;fontSize=17;fontColor=#666666;align=left;whiteSpace=wrap;" parent="P6iFAdVfE9VBDvEstXAy-1" vertex="1">
          <mxGeometry x="60" y="12" width="110" height="26" as="geometry" />
        </mxCell>
        <mxCell id="P6iFAdVfE9VBDvEstXAy-3" value="https://www.draw.io" style="strokeWidth=1;shadow=0;dashed=0;align=center;html=1;shape=mxgraph.mockup.containers.anchor;rSize=0;fontSize=17;fontColor=#666666;align=left;" parent="P6iFAdVfE9VBDvEstXAy-1" vertex="1">
          <mxGeometry x="130" y="60" width="250" height="26" as="geometry" />
        </mxCell>
        <mxCell id="oYNeHJmaoI0qk-9F_a-Q-2" value="Hi, Jenny" style="text;html=1;strokeColor=none;fillColor=none;align=center;verticalAlign=middle;whiteSpace=wrap;rounded=0;fontSize=13;" parent="P6iFAdVfE9VBDvEstXAy-1" vertex="1">
          <mxGeometry y="130" width="144" height="60" as="geometry" />
        </mxCell>
        <mxCell id="3YHYUGLsifKlYgOciddi-15" value="" style="shape=mxgraph.mockup.containers.marginRect;rectMarginTop=10;strokeColor=#666666;strokeWidth=1;dashed=0;rounded=1;arcSize=5;recursiveResize=0;html=1;whiteSpace=wrap;" parent="P6iFAdVfE9VBDvEstXAy-1" vertex="1">
          <mxGeometry x="40" y="210" width="680" height="300" as="geometry" />
        </mxCell>
        <mxCell id="oElKBwD710Hh4BpiwOOj-1" value="" style="verticalLabelPosition=bottom;shadow=0;dashed=0;align=center;html=1;verticalAlign=top;strokeWidth=1;shape=mxgraph.mockup.containers.userFemale;strokeColor=#666666;strokeColor2=#008cff;" parent="P6iFAdVfE9VBDvEstXAy-1" vertex="1">
          <mxGeometry x="654" y="130" width="66" height="60" as="geometry" />
        </mxCell>
        <mxCell id="oElKBwD710Hh4BpiwOOj-2" value="CRC" style="shape=rectangle;strokeColor=none;fillColor=none;linkText=;fontSize=13;fontColor=#0000ff;fontStyle=4;html=1;align=center;" parent="P6iFAdVfE9VBDvEstXAy-1" vertex="1">
          <mxGeometry x="34" y="180" width="46" height="30" as="geometry" />
        </mxCell>
        <mxCell id="vo4TvZzdCr-7MsrrhGXf-1" value="Spike Analysis" style="shape=rectangle;strokeColor=none;fillColor=none;linkText=;fontSize=13;fontColor=#0000ff;fontStyle=4;html=1;align=center;" parent="P6iFAdVfE9VBDvEstXAy-1" vertex="1">
          <mxGeometry x="114" y="180" width="46" height="30" as="geometry" />
        </mxCell>
        <mxCell id="vo4TvZzdCr-7MsrrhGXf-2" value="&amp;gt;" style="shape=rectangle;strokeColor=none;fillColor=none;linkText=;fontSize=13;fontColor=#0000ff;fontStyle=0;html=1;align=center;" parent="P6iFAdVfE9VBDvEstXAy-1" vertex="1">
          <mxGeometry x="60" y="180" width="46" height="30" as="geometry" />
        </mxCell>
        <mxCell id="T5uuOyvtblYXpBfLixxs-11" value="" style="verticalLabelPosition=bottom;shadow=0;dashed=0;align=center;html=1;verticalAlign=top;strokeWidth=1;shape=mxgraph.mockup.containers.userMale;strokeColor=#666666;strokeColor2=#008cff;" parent="P6iFAdVfE9VBDvEstXAy-1" vertex="1">
          <mxGeometry x="60" y="230" width="60" height="60" as="geometry" />
        </mxCell>
        <mxCell id="T5uuOyvtblYXpBfLixxs-12" value="" style="verticalLabelPosition=bottom;shadow=0;dashed=0;align=center;html=1;verticalAlign=top;strokeWidth=1;shape=mxgraph.mockup.containers.userFemale;strokeColor=#666666;strokeColor2=#008cff;" parent="P6iFAdVfE9VBDvEstXAy-1" vertex="1">
          <mxGeometry x="60" y="340" width="61.5" height="60" as="geometry" />
        </mxCell>
        <mxCell id="T5uuOyvtblYXpBfLixxs-13" value="" style="verticalLabelPosition=bottom;shadow=0;dashed=0;align=center;html=1;verticalAlign=top;strokeWidth=1;shape=mxgraph.mockup.containers.userMale;strokeColor=#666666;strokeColor2=#008cff;" parent="P6iFAdVfE9VBDvEstXAy-1" vertex="1">
          <mxGeometry x="61.5" y="440" width="60" height="60" as="geometry" />
        </mxCell>
        <mxCell id="T5uuOyvtblYXpBfLixxs-14" value="List Item" style="text;strokeColor=none;fillColor=none;align=left;verticalAlign=middle;spacingLeft=4;spacingRight=4;overflow=hidden;points=[[0,0.5],[1,0.5]];portConstraint=eastwest;rotatable=0;whiteSpace=wrap;html=1;" parent="P6iFAdVfE9VBDvEstXAy-1" vertex="1">
          <mxGeometry x="170" y="245" width="80" height="30" as="geometry" />
        </mxCell>
        <mxCell id="T5uuOyvtblYXpBfLixxs-15" value="List Item" style="text;strokeColor=none;fillColor=none;align=left;verticalAlign=middle;spacingLeft=4;spacingRight=4;overflow=hidden;points=[[0,0.5],[1,0.5]];portConstraint=eastwest;rotatable=0;whiteSpace=wrap;html=1;" parent="P6iFAdVfE9VBDvEstXAy-1" vertex="1">
          <mxGeometry x="170" y="355" width="80" height="30" as="geometry" />
        </mxCell>
        <mxCell id="T5uuOyvtblYXpBfLixxs-16" value="List Item" style="text;strokeColor=none;fillColor=none;align=left;verticalAlign=middle;spacingLeft=4;spacingRight=4;overflow=hidden;points=[[0,0.5],[1,0.5]];portConstraint=eastwest;rotatable=0;whiteSpace=wrap;html=1;" parent="P6iFAdVfE9VBDvEstXAy-1" vertex="1">
          <mxGeometry x="170" y="455" width="80" height="30" as="geometry" />
        </mxCell>
      </root>
    </mxGraphModel>
  </diagram>
  <diagram id="GY8potW_62QnKZcndrMB" name="第 3 页">
    <mxGraphModel dx="1194" dy="550" grid="1" gridSize="10" guides="1" tooltips="1" connect="1" arrows="1" fold="1" page="1" pageScale="1" pageWidth="827" pageHeight="1169" math="0" shadow="0">
      <root>
        <mxCell id="0" />
        <mxCell id="1" parent="0" />
        <mxCell id="5eb1cjW0VlY5W7rQvG5u-1" value="" style="strokeWidth=1;shadow=0;dashed=0;align=center;html=1;shape=mxgraph.mockup.containers.browserWindow;rSize=0;strokeColor=#666666;strokeColor2=#008cff;strokeColor3=#c4c4c4;mainText=,;recursiveResize=0;" parent="1" vertex="1">
          <mxGeometry x="34" y="20" width="760" height="550" as="geometry" />
        </mxCell>
        <mxCell id="5eb1cjW0VlY5W7rQvG5u-2" value="Org Page" style="strokeWidth=1;shadow=0;dashed=0;align=center;html=1;shape=mxgraph.mockup.containers.anchor;fontSize=17;fontColor=#666666;align=left;whiteSpace=wrap;" parent="5eb1cjW0VlY5W7rQvG5u-1" vertex="1">
          <mxGeometry x="60" y="12" width="110" height="26" as="geometry" />
        </mxCell>
        <mxCell id="5eb1cjW0VlY5W7rQvG5u-3" value="https://www.draw.io" style="strokeWidth=1;shadow=0;dashed=0;align=center;html=1;shape=mxgraph.mockup.containers.anchor;rSize=0;fontSize=17;fontColor=#666666;align=left;" parent="5eb1cjW0VlY5W7rQvG5u-1" vertex="1">
          <mxGeometry x="130" y="60" width="250" height="26" as="geometry" />
        </mxCell>
        <mxCell id="5eb1cjW0VlY5W7rQvG5u-4" value="Hi, Jenny" style="text;html=1;strokeColor=none;fillColor=none;align=center;verticalAlign=middle;whiteSpace=wrap;rounded=0;fontSize=13;" parent="5eb1cjW0VlY5W7rQvG5u-1" vertex="1">
          <mxGeometry y="130" width="144" height="60" as="geometry" />
        </mxCell>
        <mxCell id="5eb1cjW0VlY5W7rQvG5u-5" value="" style="shape=mxgraph.mockup.containers.marginRect;rectMarginTop=10;strokeColor=#666666;strokeWidth=1;dashed=0;rounded=1;arcSize=5;recursiveResize=0;html=1;whiteSpace=wrap;" parent="5eb1cjW0VlY5W7rQvG5u-1" vertex="1">
          <mxGeometry x="40" y="210" width="680" height="300" as="geometry" />
        </mxCell>
        <mxCell id="5eb1cjW0VlY5W7rQvG5u-6" value="" style="verticalLabelPosition=bottom;shadow=0;dashed=0;align=center;html=1;verticalAlign=top;strokeWidth=1;shape=mxgraph.mockup.containers.userFemale;strokeColor=#666666;strokeColor2=#008cff;" parent="5eb1cjW0VlY5W7rQvG5u-1" vertex="1">
          <mxGeometry x="654" y="130" width="66" height="60" as="geometry" />
        </mxCell>
        <mxCell id="5eb1cjW0VlY5W7rQvG5u-7" value="CRC" style="shape=rectangle;strokeColor=none;fillColor=none;linkText=;fontSize=13;fontColor=#0000ff;fontStyle=4;html=1;align=center;" parent="5eb1cjW0VlY5W7rQvG5u-1" vertex="1">
          <mxGeometry x="34" y="180" width="46" height="30" as="geometry" />
        </mxCell>
        <mxCell id="dhyytxlqNAtY-aX1jUpT-14" value="" style="strokeWidth=1;shadow=0;dashed=0;align=center;html=1;shape=mxgraph.mockup.buttons.multiButton;fillColor=#008cff;strokeColor=#666666;mainText=;subText=;" parent="5eb1cjW0VlY5W7rQvG5u-1" vertex="1">
          <mxGeometry x="50" y="230" width="120" height="50" as="geometry" />
        </mxCell>
        <mxCell id="dhyytxlqNAtY-aX1jUpT-15" value="EM" style="strokeWidth=1;shadow=0;dashed=0;align=center;html=1;shape=mxgraph.mockup.anchor;fontSize=16;fontColor=#ffffff;fontStyle=1;whiteSpace=wrap;" parent="dhyytxlqNAtY-aX1jUpT-14" vertex="1">
          <mxGeometry y="8" width="120" height="20" as="geometry" />
        </mxCell>
        <mxCell id="dhyytxlqNAtY-aX1jUpT-16" value="7" style="strokeWidth=1;shadow=0;dashed=0;align=center;html=1;shape=mxgraph.mockup.anchor;fontSize=12;fontColor=#ffffff;fontStyle=1;whiteSpace=wrap;" parent="dhyytxlqNAtY-aX1jUpT-14" vertex="1">
          <mxGeometry y="30" width="120" height="10" as="geometry" />
        </mxCell>
        <mxCell id="dhyytxlqNAtY-aX1jUpT-18" value="" style="strokeWidth=1;shadow=0;dashed=0;align=center;html=1;shape=mxgraph.mockup.buttons.multiButton;fillColor=#008cff;strokeColor=#666666;mainText=;subText=;" parent="5eb1cjW0VlY5W7rQvG5u-1" vertex="1">
          <mxGeometry x="186" y="230" width="120" height="50" as="geometry" />
        </mxCell>
        <mxCell id="dhyytxlqNAtY-aX1jUpT-19" value="LM" style="strokeWidth=1;shadow=0;dashed=0;align=center;html=1;shape=mxgraph.mockup.anchor;fontSize=16;fontColor=#ffffff;fontStyle=1;whiteSpace=wrap;" parent="dhyytxlqNAtY-aX1jUpT-18" vertex="1">
          <mxGeometry y="8" width="120" height="20" as="geometry" />
        </mxCell>
        <mxCell id="dhyytxlqNAtY-aX1jUpT-20" value="9" style="strokeWidth=1;shadow=0;dashed=0;align=center;html=1;shape=mxgraph.mockup.anchor;fontSize=12;fontColor=#ffffff;fontStyle=1;whiteSpace=wrap;" parent="dhyytxlqNAtY-aX1jUpT-18" vertex="1">
          <mxGeometry y="30" width="120" height="10" as="geometry" />
        </mxCell>
        <mxCell id="dhyytxlqNAtY-aX1jUpT-21" value="" style="strokeWidth=1;shadow=0;dashed=0;align=center;html=1;shape=mxgraph.mockup.buttons.multiButton;fillColor=#008cff;strokeColor=#666666;mainText=;subText=;" parent="5eb1cjW0VlY5W7rQvG5u-1" vertex="1">
          <mxGeometry x="320" y="230" width="120" height="50" as="geometry" />
        </mxCell>
        <mxCell id="dhyytxlqNAtY-aX1jUpT-22" value="LP" style="strokeWidth=1;shadow=0;dashed=0;align=center;html=1;shape=mxgraph.mockup.anchor;fontSize=16;fontColor=#ffffff;fontStyle=1;whiteSpace=wrap;" parent="dhyytxlqNAtY-aX1jUpT-21" vertex="1">
          <mxGeometry y="8" width="120" height="20" as="geometry" />
        </mxCell>
        <mxCell id="dhyytxlqNAtY-aX1jUpT-23" value="9" style="strokeWidth=1;shadow=0;dashed=0;align=center;html=1;shape=mxgraph.mockup.anchor;fontSize=12;fontColor=#ffffff;fontStyle=1;whiteSpace=wrap;" parent="dhyytxlqNAtY-aX1jUpT-21" vertex="1">
          <mxGeometry y="30" width="120" height="10" as="geometry" />
        </mxCell>
        <mxCell id="dhyytxlqNAtY-aX1jUpT-24" value="" style="strokeWidth=1;shadow=0;dashed=0;align=center;html=1;shape=mxgraph.mockup.buttons.multiButton;fillColor=#008cff;strokeColor=#666666;mainText=;subText=;" parent="5eb1cjW0VlY5W7rQvG5u-1" vertex="1">
          <mxGeometry x="456" y="230" width="120" height="50" as="geometry" />
        </mxCell>
        <mxCell id="dhyytxlqNAtY-aX1jUpT-25" value="PSRM" style="strokeWidth=1;shadow=0;dashed=0;align=center;html=1;shape=mxgraph.mockup.anchor;fontSize=16;fontColor=#ffffff;fontStyle=1;whiteSpace=wrap;" parent="dhyytxlqNAtY-aX1jUpT-24" vertex="1">
          <mxGeometry y="8" width="120" height="20" as="geometry" />
        </mxCell>
        <mxCell id="dhyytxlqNAtY-aX1jUpT-26" value="13" style="strokeWidth=1;shadow=0;dashed=0;align=center;html=1;shape=mxgraph.mockup.anchor;fontSize=12;fontColor=#ffffff;fontStyle=1;whiteSpace=wrap;" parent="dhyytxlqNAtY-aX1jUpT-24" vertex="1">
          <mxGeometry y="30" width="120" height="10" as="geometry" />
        </mxCell>
        <mxCell id="dhyytxlqNAtY-aX1jUpT-27" value="" style="strokeWidth=1;shadow=0;dashed=0;align=center;html=1;shape=mxgraph.mockup.buttons.multiButton;fillColor=#008cff;strokeColor=#666666;mainText=;subText=;" parent="5eb1cjW0VlY5W7rQvG5u-1" vertex="1">
          <mxGeometry x="586" y="230" width="120" height="50" as="geometry" />
        </mxCell>
        <mxCell id="dhyytxlqNAtY-aX1jUpT-28" value="QA" style="strokeWidth=1;shadow=0;dashed=0;align=center;html=1;shape=mxgraph.mockup.anchor;fontSize=16;fontColor=#ffffff;fontStyle=1;whiteSpace=wrap;" parent="dhyytxlqNAtY-aX1jUpT-27" vertex="1">
          <mxGeometry y="8" width="120" height="20" as="geometry" />
        </mxCell>
        <mxCell id="dhyytxlqNAtY-aX1jUpT-29" value="7" style="strokeWidth=1;shadow=0;dashed=0;align=center;html=1;shape=mxgraph.mockup.anchor;fontSize=12;fontColor=#ffffff;fontStyle=1;whiteSpace=wrap;" parent="dhyytxlqNAtY-aX1jUpT-27" vertex="1">
          <mxGeometry y="30" width="120" height="10" as="geometry" />
        </mxCell>
        <mxCell id="dhyytxlqNAtY-aX1jUpT-30" value="" style="strokeWidth=1;shadow=0;dashed=0;align=center;html=1;shape=mxgraph.mockup.buttons.multiButton;fillColor=#008cff;strokeColor=#666666;mainText=;subText=;" parent="5eb1cjW0VlY5W7rQvG5u-1" vertex="1">
          <mxGeometry x="50" y="290" width="120" height="50" as="geometry" />
        </mxCell>
        <mxCell id="dhyytxlqNAtY-aX1jUpT-31" value="SCEF" style="strokeWidth=1;shadow=0;dashed=0;align=center;html=1;shape=mxgraph.mockup.anchor;fontSize=16;fontColor=#ffffff;fontStyle=1;whiteSpace=wrap;" parent="dhyytxlqNAtY-aX1jUpT-30" vertex="1">
          <mxGeometry y="8" width="120" height="20" as="geometry" />
        </mxCell>
        <mxCell id="dhyytxlqNAtY-aX1jUpT-32" value="6" style="strokeWidth=1;shadow=0;dashed=0;align=center;html=1;shape=mxgraph.mockup.anchor;fontSize=12;fontColor=#ffffff;fontStyle=1;whiteSpace=wrap;" parent="dhyytxlqNAtY-aX1jUpT-30" vertex="1">
          <mxGeometry y="30" width="120" height="10" as="geometry" />
        </mxCell>
        <mxCell id="dhyytxlqNAtY-aX1jUpT-33" value="" style="strokeWidth=1;shadow=0;dashed=0;align=center;html=1;shape=mxgraph.mockup.buttons.multiButton;fillColor=#008cff;strokeColor=#666666;mainText=;subText=;" parent="5eb1cjW0VlY5W7rQvG5u-1" vertex="1">
          <mxGeometry x="186" y="290" width="120" height="50" as="geometry" />
        </mxCell>
        <mxCell id="dhyytxlqNAtY-aX1jUpT-34" value="Spike Analysis" style="strokeWidth=1;shadow=0;dashed=0;align=center;html=1;shape=mxgraph.mockup.anchor;fontSize=16;fontColor=#ffffff;fontStyle=1;whiteSpace=wrap;" parent="dhyytxlqNAtY-aX1jUpT-33" vertex="1">
          <mxGeometry y="8" width="120" height="20" as="geometry" />
        </mxCell>
        <mxCell id="dhyytxlqNAtY-aX1jUpT-35" value="11" style="strokeWidth=1;shadow=0;dashed=0;align=center;html=1;shape=mxgraph.mockup.anchor;fontSize=12;fontColor=#ffffff;fontStyle=1;whiteSpace=wrap;" parent="dhyytxlqNAtY-aX1jUpT-33" vertex="1">
          <mxGeometry y="30" width="120" height="10" as="geometry" />
        </mxCell>
        <mxCell id="dhyytxlqNAtY-aX1jUpT-36" value="" style="strokeWidth=1;shadow=0;dashed=0;align=center;html=1;shape=mxgraph.mockup.buttons.multiButton;fillColor=#008cff;strokeColor=#666666;mainText=;subText=;" parent="5eb1cjW0VlY5W7rQvG5u-1" vertex="1">
          <mxGeometry x="320" y="290" width="120" height="50" as="geometry" />
        </mxCell>
        <mxCell id="dhyytxlqNAtY-aX1jUpT-37" value="Stress Testing" style="strokeWidth=1;shadow=0;dashed=0;align=center;html=1;shape=mxgraph.mockup.anchor;fontSize=16;fontColor=#ffffff;fontStyle=1;whiteSpace=wrap;" parent="dhyytxlqNAtY-aX1jUpT-36" vertex="1">
          <mxGeometry y="8" width="120" height="20" as="geometry" />
        </mxCell>
        <mxCell id="dhyytxlqNAtY-aX1jUpT-38" value="7" style="strokeWidth=1;shadow=0;dashed=0;align=center;html=1;shape=mxgraph.mockup.anchor;fontSize=12;fontColor=#ffffff;fontStyle=1;whiteSpace=wrap;" parent="dhyytxlqNAtY-aX1jUpT-36" vertex="1">
          <mxGeometry y="30" width="120" height="10" as="geometry" />
        </mxCell>
        <mxCell id="dhyytxlqNAtY-aX1jUpT-39" value="" style="strokeWidth=1;shadow=0;dashed=0;align=center;html=1;shape=mxgraph.mockup.buttons.multiButton;fillColor=#008cff;strokeColor=#666666;mainText=;subText=;" parent="5eb1cjW0VlY5W7rQvG5u-1" vertex="1">
          <mxGeometry x="456" y="290" width="120" height="50" as="geometry" />
        </mxCell>
        <mxCell id="dhyytxlqNAtY-aX1jUpT-40" value="Tableau" style="strokeWidth=1;shadow=0;dashed=0;align=center;html=1;shape=mxgraph.mockup.anchor;fontSize=16;fontColor=#ffffff;fontStyle=1;whiteSpace=wrap;" parent="dhyytxlqNAtY-aX1jUpT-39" vertex="1">
          <mxGeometry y="8" width="120" height="20" as="geometry" />
        </mxCell>
        <mxCell id="dhyytxlqNAtY-aX1jUpT-41" value="5" style="strokeWidth=1;shadow=0;dashed=0;align=center;html=1;shape=mxgraph.mockup.anchor;fontSize=12;fontColor=#ffffff;fontStyle=1;whiteSpace=wrap;" parent="dhyytxlqNAtY-aX1jUpT-39" vertex="1">
          <mxGeometry y="30" width="120" height="10" as="geometry" />
        </mxCell>
        <mxCell id="dhyytxlqNAtY-aX1jUpT-42" value="" style="strokeWidth=1;shadow=0;dashed=0;align=center;html=1;shape=mxgraph.mockup.buttons.multiButton;fillColor=#008cff;strokeColor=#666666;mainText=;subText=;" parent="5eb1cjW0VlY5W7rQvG5u-1" vertex="1">
          <mxGeometry x="586" y="290" width="120" height="50" as="geometry" />
        </mxCell>
        <mxCell id="dhyytxlqNAtY-aX1jUpT-43" value="What-if" style="strokeWidth=1;shadow=0;dashed=0;align=center;html=1;shape=mxgraph.mockup.anchor;fontSize=16;fontColor=#ffffff;fontStyle=1;whiteSpace=wrap;" parent="dhyytxlqNAtY-aX1jUpT-42" vertex="1">
          <mxGeometry y="8" width="120" height="20" as="geometry" />
        </mxCell>
        <mxCell id="dhyytxlqNAtY-aX1jUpT-44" value="11" style="strokeWidth=1;shadow=0;dashed=0;align=center;html=1;shape=mxgraph.mockup.anchor;fontSize=12;fontColor=#ffffff;fontStyle=1;whiteSpace=wrap;" parent="dhyytxlqNAtY-aX1jUpT-42" vertex="1">
          <mxGeometry y="30" width="120" height="10" as="geometry" />
        </mxCell>
        <mxCell id="dhyytxlqNAtY-aX1jUpT-45" value="" style="verticalLabelPosition=bottom;shadow=0;dashed=0;align=center;html=1;verticalAlign=top;strokeWidth=1;shape=mxgraph.mockup.graphics.pieChart;strokeColor=#008cff;parts=10,20,35;partColors=#e0e0e0,#d0d0d0,#c0c0c0,#b0b0b0,#a0a0a0;strokeWidth=2;" parent="5eb1cjW0VlY5W7rQvG5u-1" vertex="1">
          <mxGeometry x="106" y="365" width="134" height="130" as="geometry" />
        </mxCell>
        <mxCell id="dhyytxlqNAtY-aX1jUpT-47" value="" style="verticalLabelPosition=bottom;shadow=0;dashed=0;align=center;html=1;verticalAlign=top;strokeWidth=1;shape=mxgraph.mockup.graphics.bubbleChart;strokeColor=none;strokeColor2=none;strokeColor3=#666666;fillColor2=#008cff;fillColor3=#dddddd;" parent="5eb1cjW0VlY5W7rQvG5u-1" vertex="1">
          <mxGeometry x="331" y="365" width="370" height="120" as="geometry" />
        </mxCell>
      </root>
    </mxGraphModel>
  </diagram>
  <diagram id="YR0NG1xru-p-c1sEkmUq" name="第 4 页">
    <mxGraphModel dx="2848" dy="550" grid="1" gridSize="10" guides="1" tooltips="1" connect="1" arrows="1" fold="1" page="1" pageScale="1" pageWidth="827" pageHeight="1169" math="0" shadow="0">
      <root>
        <mxCell id="0" />
        <mxCell id="1" parent="0" />
        <mxCell id="AzmAs56Sw9v9ptZN0tMD-1" value="" style="strokeWidth=1;shadow=0;dashed=0;align=center;html=1;shape=mxgraph.mockup.containers.browserWindow;rSize=0;strokeColor=#666666;strokeColor2=#008cff;strokeColor3=#c4c4c4;mainText=,;recursiveResize=0;" parent="1" vertex="1">
          <mxGeometry x="-1640" y="10" width="760" height="530" as="geometry" />
        </mxCell>
        <mxCell id="AzmAs56Sw9v9ptZN0tMD-2" value="Profile Page" style="strokeWidth=1;shadow=0;dashed=0;align=center;html=1;shape=mxgraph.mockup.containers.anchor;fontSize=17;fontColor=#666666;align=left;whiteSpace=wrap;" parent="AzmAs56Sw9v9ptZN0tMD-1" vertex="1">
          <mxGeometry x="60" y="12" width="110" height="26" as="geometry" />
        </mxCell>
        <mxCell id="AzmAs56Sw9v9ptZN0tMD-3" value="https://www.draw.io" style="strokeWidth=1;shadow=0;dashed=0;align=center;html=1;shape=mxgraph.mockup.containers.anchor;rSize=0;fontSize=17;fontColor=#666666;align=left;" parent="AzmAs56Sw9v9ptZN0tMD-1" vertex="1">
          <mxGeometry x="130" y="60" width="250" height="26" as="geometry" />
        </mxCell>
        <mxCell id="AzmAs56Sw9v9ptZN0tMD-5" value="" style="shape=mxgraph.mockup.containers.marginRect;rectMarginTop=10;strokeColor=#666666;strokeWidth=1;dashed=0;rounded=1;arcSize=5;recursiveResize=0;html=1;whiteSpace=wrap;" parent="AzmAs56Sw9v9ptZN0tMD-1" vertex="1">
          <mxGeometry x="40" y="210" width="680" height="300" as="geometry" />
        </mxCell>
        <mxCell id="AzmAs56Sw9v9ptZN0tMD-6" value="" style="verticalLabelPosition=bottom;shadow=0;dashed=0;align=center;html=1;verticalAlign=top;strokeWidth=1;shape=mxgraph.mockup.containers.userFemale;strokeColor=#666666;strokeColor2=#008cff;" parent="AzmAs56Sw9v9ptZN0tMD-1" vertex="1">
          <mxGeometry x="40" y="140" width="66" height="60" as="geometry" />
        </mxCell>
        <mxCell id="trIHPfdpDZ0KPJ4r65Fr-5" value="Edit" style="strokeWidth=1;shadow=0;dashed=0;align=center;html=1;shape=mxgraph.mockup.buttons.button;strokeColor=#666666;fontColor=#ffffff;mainText=;buttonStyle=round;fontSize=17;fontStyle=1;fillColor=#008cff;whiteSpace=wrap;" parent="AzmAs56Sw9v9ptZN0tMD-1" vertex="1">
          <mxGeometry x="140" y="145" width="90" height="50" as="geometry" />
        </mxCell>
        <mxCell id="trIHPfdpDZ0KPJ4r65Fr-15" value="Location" style="text;strokeColor=none;fillColor=none;align=left;verticalAlign=middle;spacingLeft=4;spacingRight=4;overflow=hidden;points=[[0,0.5],[1,0.5]];portConstraint=eastwest;rotatable=0;whiteSpace=wrap;html=1;" parent="AzmAs56Sw9v9ptZN0tMD-1" vertex="1">
          <mxGeometry x="60" y="330" width="270" height="30" as="geometry" />
        </mxCell>
        <mxCell id="trIHPfdpDZ0KPJ4r65Fr-14" value="Name &amp;nbsp; &amp;nbsp; &amp;nbsp; Zhang, Qiyi Jenny" style="text;strokeColor=none;fillColor=none;align=left;verticalAlign=middle;spacingLeft=4;spacingRight=4;overflow=hidden;points=[[0,0.5],[1,0.5]];portConstraint=eastwest;rotatable=0;whiteSpace=wrap;html=1;" parent="AzmAs56Sw9v9ptZN0tMD-1" vertex="1">
          <mxGeometry x="60" y="270" width="330" height="30" as="geometry" />
        </mxCell>
        <mxCell id="trIHPfdpDZ0KPJ4r65Fr-17" value="&lt;h1&gt;Personal Details&lt;/h1&gt;" style="text;html=1;strokeColor=none;fillColor=none;spacing=5;spacingTop=-20;whiteSpace=wrap;overflow=hidden;rounded=0;" parent="AzmAs56Sw9v9ptZN0tMD-1" vertex="1">
          <mxGeometry x="60" y="230" width="230" height="40" as="geometry" />
        </mxCell>
        <mxCell id="trIHPfdpDZ0KPJ4r65Fr-19" value="Gender" style="text;strokeColor=none;fillColor=none;align=left;verticalAlign=middle;spacingLeft=4;spacingRight=4;overflow=hidden;points=[[0,0.5],[1,0.5]];portConstraint=eastwest;rotatable=0;whiteSpace=wrap;html=1;" parent="AzmAs56Sw9v9ptZN0tMD-1" vertex="1">
          <mxGeometry x="60" y="300" width="270" height="30" as="geometry" />
        </mxCell>
        <mxCell id="trIHPfdpDZ0KPJ4r65Fr-22" value="Hobby" style="text;strokeColor=none;fillColor=none;align=left;verticalAlign=middle;spacingLeft=4;spacingRight=4;overflow=hidden;points=[[0,0.5],[1,0.5]];portConstraint=eastwest;rotatable=0;whiteSpace=wrap;html=1;" parent="AzmAs56Sw9v9ptZN0tMD-1" vertex="1">
          <mxGeometry x="60" y="360" width="270" height="30" as="geometry" />
        </mxCell>
        <mxCell id="trIHPfdpDZ0KPJ4r65Fr-20" value="Hometown&amp;nbsp;" style="text;strokeColor=none;fillColor=none;align=left;verticalAlign=middle;spacingLeft=4;spacingRight=4;overflow=hidden;points=[[0,0.5],[1,0.5]];portConstraint=eastwest;rotatable=0;whiteSpace=wrap;html=1;" parent="AzmAs56Sw9v9ptZN0tMD-1" vertex="1">
          <mxGeometry x="60" y="390" width="270" height="30" as="geometry" />
        </mxCell>
        <mxCell id="trIHPfdpDZ0KPJ4r65Fr-23" value="Role&amp;nbsp;" style="text;strokeColor=none;fillColor=none;align=left;verticalAlign=middle;spacingLeft=4;spacingRight=4;overflow=hidden;points=[[0,0.5],[1,0.5]];portConstraint=eastwest;rotatable=0;whiteSpace=wrap;html=1;" parent="AzmAs56Sw9v9ptZN0tMD-1" vertex="1">
          <mxGeometry x="60" y="420" width="270" height="30" as="geometry" />
        </mxCell>
      </root>
    </mxGraphModel>
  </diagram>
  <diagram id="Rynh9-XdJM8Y4-DVyZjB" name="第 5 页">
    <mxGraphModel dx="1194" dy="550" grid="1" gridSize="10" guides="1" tooltips="1" connect="1" arrows="1" fold="1" page="1" pageScale="1" pageWidth="827" pageHeight="1169" math="0" shadow="0">
      <root>
        <mxCell id="0" />
        <mxCell id="1" parent="0" />
        <mxCell id="VyJ49mh373xZombC7ikP-1" value="" style="strokeWidth=1;shadow=0;dashed=0;align=center;html=1;shape=mxgraph.mockup.containers.browserWindow;rSize=0;strokeColor=#666666;strokeColor2=#008cff;strokeColor3=#c4c4c4;mainText=,;recursiveResize=0;fontColor=#3399FF;movable=1;resizable=1;rotatable=1;deletable=1;editable=1;locked=0;connectable=1;" parent="1" vertex="1">
          <mxGeometry x="10" y="10" width="760" height="530" as="geometry" />
        </mxCell>
        <mxCell id="VyJ49mh373xZombC7ikP-2" value="Profile Page" style="strokeWidth=1;shadow=0;dashed=0;align=center;html=1;shape=mxgraph.mockup.containers.anchor;fontSize=17;fontColor=#666666;align=left;whiteSpace=wrap;movable=1;resizable=1;rotatable=1;deletable=1;editable=1;locked=0;connectable=1;" parent="VyJ49mh373xZombC7ikP-1" vertex="1">
          <mxGeometry x="60" y="12" width="110" height="26" as="geometry" />
        </mxCell>
        <mxCell id="VyJ49mh373xZombC7ikP-3" value="https://www.draw.io" style="strokeWidth=1;shadow=0;dashed=0;align=center;html=1;shape=mxgraph.mockup.containers.anchor;rSize=0;fontSize=17;fontColor=#666666;align=left;movable=1;resizable=1;rotatable=1;deletable=1;editable=1;locked=0;connectable=1;" parent="VyJ49mh373xZombC7ikP-1" vertex="1">
          <mxGeometry x="130" y="60" width="250" height="26" as="geometry" />
        </mxCell>
        <mxCell id="VyJ49mh373xZombC7ikP-4" value="" style="shape=mxgraph.mockup.containers.marginRect;rectMarginTop=10;strokeColor=#666666;strokeWidth=1;dashed=0;rounded=1;arcSize=5;recursiveResize=0;html=1;whiteSpace=wrap;movable=1;resizable=1;rotatable=1;deletable=1;editable=1;locked=0;connectable=1;" parent="VyJ49mh373xZombC7ikP-1" vertex="1">
          <mxGeometry x="40" y="210" width="680" height="300" as="geometry" />
        </mxCell>
        <mxCell id="VyJ49mh373xZombC7ikP-5" value="" style="verticalLabelPosition=bottom;shadow=0;dashed=0;align=center;html=1;verticalAlign=top;strokeWidth=1;shape=mxgraph.mockup.containers.userFemale;strokeColor=#666666;strokeColor2=#008cff;movable=1;resizable=1;rotatable=1;deletable=1;editable=1;locked=0;connectable=1;" parent="VyJ49mh373xZombC7ikP-1" vertex="1">
          <mxGeometry x="40" y="140" width="66" height="60" as="geometry" />
        </mxCell>
        <mxCell id="VyJ49mh373xZombC7ikP-6" value="Save" style="strokeWidth=1;shadow=0;dashed=0;align=center;html=1;shape=mxgraph.mockup.buttons.button;strokeColor=#666666;fontColor=#ffffff;mainText=;buttonStyle=round;fontSize=17;fontStyle=1;fillColor=#008cff;whiteSpace=wrap;movable=1;resizable=1;rotatable=1;deletable=1;editable=1;locked=0;connectable=1;" parent="VyJ49mh373xZombC7ikP-1" vertex="1">
          <mxGeometry x="140" y="145" width="90" height="50" as="geometry" />
        </mxCell>
        <mxCell id="VyJ49mh373xZombC7ikP-7" value="Location" style="text;strokeColor=none;fillColor=none;align=left;verticalAlign=middle;spacingLeft=4;spacingRight=4;overflow=hidden;points=[[0,0.5],[1,0.5]];portConstraint=eastwest;rotatable=1;whiteSpace=wrap;html=1;movable=1;resizable=1;deletable=1;editable=1;locked=0;connectable=1;" parent="VyJ49mh373xZombC7ikP-1" vertex="1">
          <mxGeometry x="60" y="330" width="270" height="30" as="geometry" />
        </mxCell>
        <mxCell id="VyJ49mh373xZombC7ikP-8" value="Name &amp;nbsp; &amp;nbsp; &amp;nbsp; Zhang, Qiyi Jenny" style="text;strokeColor=none;fillColor=none;align=left;verticalAlign=middle;spacingLeft=4;spacingRight=4;overflow=hidden;points=[[0,0.5],[1,0.5]];portConstraint=eastwest;rotatable=1;whiteSpace=wrap;html=1;movable=1;resizable=1;deletable=1;editable=1;locked=0;connectable=1;" parent="VyJ49mh373xZombC7ikP-1" vertex="1">
          <mxGeometry x="60" y="270" width="330" height="30" as="geometry" />
        </mxCell>
        <mxCell id="VyJ49mh373xZombC7ikP-9" value="&lt;h1&gt;Personal Details&lt;/h1&gt;" style="text;html=1;strokeColor=none;fillColor=none;spacing=5;spacingTop=-20;whiteSpace=wrap;overflow=hidden;rounded=0;movable=1;resizable=1;rotatable=1;deletable=1;editable=1;locked=0;connectable=1;" parent="VyJ49mh373xZombC7ikP-1" vertex="1">
          <mxGeometry x="60" y="230" width="230" height="40" as="geometry" />
        </mxCell>
        <mxCell id="VyJ49mh373xZombC7ikP-11" value="Hobby" style="text;strokeColor=none;fillColor=none;align=left;verticalAlign=middle;spacingLeft=4;spacingRight=4;overflow=hidden;points=[[0,0.5],[1,0.5]];portConstraint=eastwest;rotatable=1;whiteSpace=wrap;html=1;movable=1;resizable=1;deletable=1;editable=1;locked=0;connectable=1;" parent="VyJ49mh373xZombC7ikP-1" vertex="1">
          <mxGeometry x="60" y="360" width="270" height="30" as="geometry" />
        </mxCell>
        <mxCell id="VyJ49mh373xZombC7ikP-10" value="Gender &amp;nbsp; &amp;nbsp; &amp;nbsp;Female" style="text;strokeColor=none;fillColor=none;align=left;verticalAlign=middle;spacingLeft=4;spacingRight=4;overflow=hidden;points=[[0,0.5],[1,0.5]];portConstraint=eastwest;rotatable=1;whiteSpace=wrap;html=1;movable=1;resizable=1;deletable=1;editable=1;locked=0;connectable=1;" parent="VyJ49mh373xZombC7ikP-1" vertex="1">
          <mxGeometry x="60" y="300" width="270" height="30" as="geometry" />
        </mxCell>
        <mxCell id="VyJ49mh373xZombC7ikP-12" value="Hometown&amp;nbsp;" style="text;strokeColor=none;fillColor=none;align=left;verticalAlign=middle;spacingLeft=4;spacingRight=4;overflow=hidden;points=[[0,0.5],[1,0.5]];portConstraint=eastwest;rotatable=1;whiteSpace=wrap;html=1;movable=1;resizable=1;deletable=1;editable=1;locked=0;connectable=1;" parent="VyJ49mh373xZombC7ikP-1" vertex="1">
          <mxGeometry x="60" y="390" width="270" height="30" as="geometry" />
        </mxCell>
        <mxCell id="VyJ49mh373xZombC7ikP-13" value="Role&amp;nbsp;" style="text;strokeColor=none;fillColor=none;align=left;verticalAlign=middle;spacingLeft=4;spacingRight=4;overflow=hidden;points=[[0,0.5],[1,0.5]];portConstraint=eastwest;rotatable=1;whiteSpace=wrap;html=1;movable=1;resizable=1;deletable=1;editable=1;locked=0;connectable=1;" parent="VyJ49mh373xZombC7ikP-1" vertex="1">
          <mxGeometry x="60" y="420" width="270" height="30" as="geometry" />
        </mxCell>
        <mxCell id="VyJ49mh373xZombC7ikP-22" value="&lt;font style=&quot;font-size: 12px;&quot;&gt;Female&lt;/font&gt;" style="strokeWidth=1;shadow=0;dashed=0;align=center;html=1;shape=mxgraph.mockup.forms.pwField;strokeColor=#999999;mainText=;align=left;fontColor=#666666;fontSize=12;spacingLeft=3;movable=1;resizable=1;rotatable=1;deletable=1;editable=1;locked=0;connectable=1;" parent="VyJ49mh373xZombC7ikP-1" vertex="1">
          <mxGeometry x="120" y="300" width="150" height="30" as="geometry" />
        </mxCell>
      </root>
    </mxGraphModel>
  </diagram>
  <diagram id="5vHgQcEbiuYucs06fRqd" name="Page-6">
    <mxGraphModel dx="3147" dy="688" grid="0" gridSize="10" guides="1" tooltips="1" connect="1" arrows="1" fold="1" page="1" pageScale="1" pageWidth="827" pageHeight="1169" math="0" shadow="0">
      <root>
        <mxCell id="0" />
        <mxCell id="1" parent="0" />
        <mxCell id="vvG2Ev4-zIx3LhnvK6Qh-4" value="" style="verticalLabelPosition=bottom;verticalAlign=top;html=1;shadow=0;dashed=0;strokeWidth=1;shape=mxgraph.android.phone2;strokeColor=#c0c0c0;" vertex="1" parent="1">
          <mxGeometry x="-1502" y="51" width="200" height="390" as="geometry" />
        </mxCell>
        <mxCell id="vvG2Ev4-zIx3LhnvK6Qh-12" value="" style="strokeWidth=1;html=1;shadow=0;dashed=0;shape=mxgraph.android.textfield;align=center;strokeColor=#999999;pointerEvents=1" vertex="1" parent="1">
          <mxGeometry x="-1455" y="184" width="131" height="30" as="geometry" />
        </mxCell>
        <mxCell id="vvG2Ev4-zIx3LhnvK6Qh-13" value="" style="strokeWidth=1;html=1;shadow=0;dashed=0;shape=mxgraph.android.textfield;align=center;strokeColor=#999999;pointerEvents=1" vertex="1" parent="1">
          <mxGeometry x="-1456" y="229" width="131" height="30" as="geometry" />
        </mxCell>
        <mxCell id="vvG2Ev4-zIx3LhnvK6Qh-16" value="" style="html=1;verticalLabelPosition=bottom;align=center;labelBackgroundColor=#ffffff;verticalAlign=top;strokeWidth=1;strokeColor=#999999;shadow=0;dashed=0;shape=mxgraph.ios7.icons.smartphone;" vertex="1" parent="1">
          <mxGeometry x="-1478" y="198" width="11" height="18" as="geometry" />
        </mxCell>
        <mxCell id="vvG2Ev4-zIx3LhnvK6Qh-17" value="" style="html=1;verticalLabelPosition=bottom;align=center;labelBackgroundColor=#ffffff;verticalAlign=top;strokeWidth=1;strokeColor=#999999;shadow=0;dashed=0;shape=mxgraph.ios7.icons.unlocked;" vertex="1" parent="1">
          <mxGeometry x="-1480" y="241" width="14" height="18" as="geometry" />
        </mxCell>
        <mxCell id="vvG2Ev4-zIx3LhnvK6Qh-18" value="" style="verticalLabelPosition=bottom;shadow=0;dashed=0;align=center;html=1;verticalAlign=top;strokeWidth=1;shape=mxgraph.mockup.graphics.simpleIcon;strokeColor=#999999;" vertex="1" parent="1">
          <mxGeometry x="-1463.12" y="111" width="124" height="61" as="geometry" />
        </mxCell>
        <mxCell id="vvG2Ev4-zIx3LhnvK6Qh-19" value="LOG IN" style="strokeWidth=1;shadow=0;dashed=0;align=center;html=1;shape=mxgraph.mockup.buttons.button;strokeColor=#666666;fontColor=#ffffff;mainText=;buttonStyle=round;fontSize=17;fontStyle=1;fillColor=#008cff;whiteSpace=wrap;" vertex="1" parent="1">
          <mxGeometry x="-1463.12" y="284" width="129.5" height="32" as="geometry" />
        </mxCell>
        <mxCell id="vvG2Ev4-zIx3LhnvK6Qh-20" value="&lt;font color=&quot;#008cff&quot;&gt;VIA WECHAT&lt;/font&gt;" style="strokeWidth=1;shadow=0;dashed=0;align=center;html=1;shape=mxgraph.mockup.buttons.button;strokeColor=#666666;fontColor=#ffffff;mainText=;buttonStyle=round;fontSize=17;fontStyle=1;fillColor=#FFFFFF;whiteSpace=wrap;" vertex="1" parent="1">
          <mxGeometry x="-1464.37" y="331" width="129.5" height="32" as="geometry" />
        </mxCell>
        <mxCell id="vvG2Ev4-zIx3LhnvK6Qh-22" value="&lt;font color=&quot;#999999&quot;&gt;Sign Up&lt;/font&gt;" style="text;html=1;strokeColor=none;fillColor=none;align=center;verticalAlign=middle;whiteSpace=wrap;rounded=0;" vertex="1" parent="1">
          <mxGeometry x="-1432" y="369" width="60" height="30" as="geometry" />
        </mxCell>
        <mxCell id="vvG2Ev4-zIx3LhnvK6Qh-24" value="" style="verticalLabelPosition=bottom;verticalAlign=top;html=1;shadow=0;dashed=0;strokeWidth=1;shape=mxgraph.android.phone2;strokeColor=#c0c0c0;" vertex="1" parent="1">
          <mxGeometry x="-1228" y="49" width="200" height="390" as="geometry" />
        </mxCell>
        <mxCell id="Njg_fdmMyVV-rOdCxK-e-1" value="" style="verticalLabelPosition=bottom;shadow=0;dashed=0;align=center;html=1;verticalAlign=top;strokeWidth=1;shape=mxgraph.mockup.graphics.pieChart;strokeColor=#008cff;parts=10,20,35;partColors=#e0e0e0,#d0d0d0,#c0c0c0,#b0b0b0,#a0a0a0;strokeWidth=2;" vertex="1" parent="1">
          <mxGeometry x="-1187.25" y="113" width="121" height="116" as="geometry" />
        </mxCell>
        <mxCell id="_ufjuz95BWD4VMMc1mfV-1" value="" style="verticalLabelPosition=bottom;shadow=0;dashed=0;align=center;html=1;verticalAlign=top;strokeWidth=1;shape=mxgraph.mockup.graphics.bubbleChart;strokeColor=none;strokeColor2=none;strokeColor3=#666666;fillColor2=#008cff;fillColor3=#dddddd;" vertex="1" parent="1">
          <mxGeometry x="-1188.5" y="248" width="123.5" height="104" as="geometry" />
        </mxCell>
        <mxCell id="_ufjuz95BWD4VMMc1mfV-2" value="&lt;font color=&quot;#999999&quot;&gt;CRC&lt;/font&gt;" style="text;html=1;strokeColor=none;fillColor=none;align=center;verticalAlign=middle;whiteSpace=wrap;rounded=0;" vertex="1" parent="1">
          <mxGeometry x="-1212" y="88" width="60" height="30" as="geometry" />
        </mxCell>
        <mxCell id="_ufjuz95BWD4VMMc1mfV-14" value="" style="group" vertex="1" connectable="0" parent="1">
          <mxGeometry x="-1219.5" y="376" width="185" height="30" as="geometry" />
        </mxCell>
        <mxCell id="_ufjuz95BWD4VMMc1mfV-4" value="" style="shape=rect;fillColor=#F6F6F8;strokeColor=none;" vertex="1" parent="_ufjuz95BWD4VMMc1mfV-14">
          <mxGeometry width="185" height="30" as="geometry" />
        </mxCell>
        <mxCell id="_ufjuz95BWD4VMMc1mfV-12" value="" style="group" vertex="1" connectable="0" parent="_ufjuz95BWD4VMMc1mfV-14">
          <mxGeometry x="22" y="4" width="133" height="22.5" as="geometry" />
        </mxCell>
        <mxCell id="_ufjuz95BWD4VMMc1mfV-8" value="" style="html=1;verticalLabelPosition=bottom;align=center;labelBackgroundColor=#ffffff;verticalAlign=top;strokeWidth=2;strokeColor=#0080F0;shadow=0;dashed=0;shape=mxgraph.ios7.icons.star;" vertex="1" parent="_ufjuz95BWD4VMMc1mfV-12">
          <mxGeometry x="54.03125" y="1.125" width="24.9375" height="20.25" as="geometry" />
        </mxCell>
        <mxCell id="_ufjuz95BWD4VMMc1mfV-9" value="" style="html=1;verticalLabelPosition=bottom;align=center;labelBackgroundColor=#ffffff;verticalAlign=top;strokeWidth=2;strokeColor=#0080F0;shadow=0;dashed=0;shape=mxgraph.ios7.icons.user;" vertex="1" parent="_ufjuz95BWD4VMMc1mfV-12">
          <mxGeometry x="108.0625" width="24.9375" height="22.5" as="geometry" />
        </mxCell>
        <mxCell id="_ufjuz95BWD4VMMc1mfV-10" value="" style="html=1;verticalLabelPosition=bottom;align=center;labelBackgroundColor=#ffffff;verticalAlign=top;strokeWidth=2;strokeColor=#0080F0;shadow=0;dashed=0;shape=mxgraph.ios7.icons.home;fillColor=#7EA6E0;" vertex="1" parent="_ufjuz95BWD4VMMc1mfV-12">
          <mxGeometry y="0.375" width="19.950000000000003" height="19.125" as="geometry" />
        </mxCell>
        <mxCell id="_ufjuz95BWD4VMMc1mfV-22" value="" style="html=1;verticalLabelPosition=bottom;labelBackgroundColor=#ffffff;verticalAlign=top;shadow=0;dashed=0;strokeWidth=2;shape=mxgraph.ios7.misc.scroll_(vertical);fillColor=#B8B8B8;" vertex="1" parent="1">
          <mxGeometry x="-1049" y="206" width="6" height="80" as="geometry" />
        </mxCell>
        <mxCell id="6EQ5abEMF2fWgEmxgwhL-8" value="" style="group" vertex="1" connectable="0" parent="1">
          <mxGeometry x="-1228" y="517" width="200" height="390" as="geometry" />
        </mxCell>
        <mxCell id="_ufjuz95BWD4VMMc1mfV-13" value="" style="verticalLabelPosition=bottom;verticalAlign=top;html=1;shadow=0;dashed=0;strokeWidth=1;shape=mxgraph.android.phone2;strokeColor=#c0c0c0;" vertex="1" parent="6EQ5abEMF2fWgEmxgwhL-8">
          <mxGeometry width="200" height="390" as="geometry" />
        </mxCell>
        <mxCell id="_ufjuz95BWD4VMMc1mfV-15" value="" style="group" vertex="1" connectable="0" parent="6EQ5abEMF2fWgEmxgwhL-8">
          <mxGeometry x="9" y="326" width="185" height="30" as="geometry" />
        </mxCell>
        <mxCell id="_ufjuz95BWD4VMMc1mfV-16" value="" style="shape=rect;fillColor=#F6F6F8;strokeColor=none;" vertex="1" parent="_ufjuz95BWD4VMMc1mfV-15">
          <mxGeometry width="185" height="30" as="geometry" />
        </mxCell>
        <mxCell id="_ufjuz95BWD4VMMc1mfV-17" value="" style="group" vertex="1" connectable="0" parent="_ufjuz95BWD4VMMc1mfV-15">
          <mxGeometry x="22" y="4" width="133" height="22.5" as="geometry" />
        </mxCell>
        <mxCell id="_ufjuz95BWD4VMMc1mfV-18" value="" style="html=1;verticalLabelPosition=bottom;align=center;labelBackgroundColor=#ffffff;verticalAlign=top;strokeWidth=2;strokeColor=#0080F0;shadow=0;dashed=0;shape=mxgraph.ios7.icons.star;" vertex="1" parent="_ufjuz95BWD4VMMc1mfV-17">
          <mxGeometry x="54.03125" y="1.125" width="24.9375" height="20.25" as="geometry" />
        </mxCell>
        <mxCell id="_ufjuz95BWD4VMMc1mfV-19" value="" style="html=1;verticalLabelPosition=bottom;align=center;labelBackgroundColor=#ffffff;verticalAlign=top;strokeWidth=2;strokeColor=#0080F0;shadow=0;dashed=0;shape=mxgraph.ios7.icons.user;fillColor=#A9C4EB;" vertex="1" parent="_ufjuz95BWD4VMMc1mfV-17">
          <mxGeometry x="108.0625" width="24.9375" height="22.5" as="geometry" />
        </mxCell>
        <mxCell id="_ufjuz95BWD4VMMc1mfV-20" value="" style="html=1;verticalLabelPosition=bottom;align=center;labelBackgroundColor=#ffffff;verticalAlign=top;strokeWidth=2;strokeColor=#0080F0;shadow=0;dashed=0;shape=mxgraph.ios7.icons.home;" vertex="1" parent="_ufjuz95BWD4VMMc1mfV-17">
          <mxGeometry y="0.375" width="19.950000000000003" height="19.125" as="geometry" />
        </mxCell>
        <mxCell id="_ufjuz95BWD4VMMc1mfV-21" value="" style="html=1;verticalLabelPosition=bottom;align=center;labelBackgroundColor=#ffffff;verticalAlign=top;strokeWidth=1;strokeColor=#0080F0;shadow=0;dashed=0;shape=mxgraph.ios7.icons.pen;" vertex="1" parent="6EQ5abEMF2fWgEmxgwhL-8">
          <mxGeometry x="167.1300000000001" y="40" width="21.48" height="21.7" as="geometry" />
        </mxCell>
        <mxCell id="_ufjuz95BWD4VMMc1mfV-32" value="" style="verticalLabelPosition=bottom;shadow=0;dashed=0;align=center;html=1;verticalAlign=top;strokeWidth=1;shape=mxgraph.mockup.markup.line;strokeColor=#999999;direction=north;rotation=-45;" vertex="1" parent="6EQ5abEMF2fWgEmxgwhL-8">
          <mxGeometry x="158.44000000000005" y="22.24000000000001" width="11.13" height="83.91" as="geometry" />
        </mxCell>
        <mxCell id="_ufjuz95BWD4VMMc1mfV-33" value="" style="verticalLabelPosition=bottom;shadow=0;dashed=0;align=center;html=1;verticalAlign=top;strokeWidth=1;shape=mxgraph.mockup.containers.userFemale;strokeColor=#666666;strokeColor2=#008cff;" vertex="1" parent="6EQ5abEMF2fWgEmxgwhL-8">
          <mxGeometry x="59" y="70" width="76" height="75" as="geometry" />
        </mxCell>
        <mxCell id="xUzlzFBOQOa_uVY5dqwb-1" value="" style="group" vertex="1" connectable="0" parent="6EQ5abEMF2fWgEmxgwhL-8">
          <mxGeometry x="26" y="160" width="152" height="152" as="geometry" />
        </mxCell>
        <mxCell id="uM768M5lp0F_e3PcSbqw-1" value="Location" style="text;strokeColor=none;fillColor=none;align=left;verticalAlign=middle;spacingLeft=4;spacingRight=4;overflow=hidden;points=[[0,0.5],[1,0.5]];portConstraint=eastwest;rotatable=0;whiteSpace=wrap;html=1;" vertex="1" parent="xUzlzFBOQOa_uVY5dqwb-1">
          <mxGeometry y="50.66666666666667" width="124.36363636363637" height="25.333333333333336" as="geometry" />
        </mxCell>
        <mxCell id="uM768M5lp0F_e3PcSbqw-2" value="Name&amp;nbsp; &amp;nbsp; &amp;nbsp; &amp;nbsp; &amp;nbsp; Zhang, Qiyi" style="text;strokeColor=none;fillColor=none;align=left;verticalAlign=middle;spacingLeft=4;spacingRight=4;overflow=hidden;points=[[0,0.5],[1,0.5]];portConstraint=eastwest;rotatable=0;whiteSpace=wrap;html=1;" vertex="1" parent="xUzlzFBOQOa_uVY5dqwb-1">
          <mxGeometry width="152" height="25.333333333333336" as="geometry" />
        </mxCell>
        <mxCell id="uM768M5lp0F_e3PcSbqw-3" value="Gender" style="text;strokeColor=none;fillColor=none;align=left;verticalAlign=middle;spacingLeft=4;spacingRight=4;overflow=hidden;points=[[0,0.5],[1,0.5]];portConstraint=eastwest;rotatable=0;whiteSpace=wrap;html=1;" vertex="1" parent="xUzlzFBOQOa_uVY5dqwb-1">
          <mxGeometry y="25.333333333333336" width="124.36363636363637" height="25.333333333333336" as="geometry" />
        </mxCell>
        <mxCell id="uM768M5lp0F_e3PcSbqw-4" value="Hobby" style="text;strokeColor=none;fillColor=none;align=left;verticalAlign=middle;spacingLeft=4;spacingRight=4;overflow=hidden;points=[[0,0.5],[1,0.5]];portConstraint=eastwest;rotatable=0;whiteSpace=wrap;html=1;" vertex="1" parent="xUzlzFBOQOa_uVY5dqwb-1">
          <mxGeometry y="76" width="124.36363636363637" height="25.333333333333336" as="geometry" />
        </mxCell>
        <mxCell id="uM768M5lp0F_e3PcSbqw-5" value="Hometown&amp;nbsp;" style="text;strokeColor=none;fillColor=none;align=left;verticalAlign=middle;spacingLeft=4;spacingRight=4;overflow=hidden;points=[[0,0.5],[1,0.5]];portConstraint=eastwest;rotatable=0;whiteSpace=wrap;html=1;" vertex="1" parent="xUzlzFBOQOa_uVY5dqwb-1">
          <mxGeometry y="101.33333333333334" width="124.36363636363637" height="25.333333333333336" as="geometry" />
        </mxCell>
        <mxCell id="uM768M5lp0F_e3PcSbqw-6" value="Role&amp;nbsp;" style="text;strokeColor=none;fillColor=none;align=left;verticalAlign=middle;spacingLeft=4;spacingRight=4;overflow=hidden;points=[[0,0.5],[1,0.5]];portConstraint=eastwest;rotatable=0;whiteSpace=wrap;html=1;" vertex="1" parent="xUzlzFBOQOa_uVY5dqwb-1">
          <mxGeometry y="126.66666666666669" width="124.36363636363637" height="25.333333333333336" as="geometry" />
        </mxCell>
        <mxCell id="6EQ5abEMF2fWgEmxgwhL-9" value="" style="group" vertex="1" connectable="0" parent="1">
          <mxGeometry x="-1504" y="518" width="200" height="390" as="geometry" />
        </mxCell>
        <mxCell id="_ufjuz95BWD4VMMc1mfV-24" value="" style="verticalLabelPosition=bottom;verticalAlign=top;html=1;shadow=0;dashed=0;strokeWidth=1;shape=mxgraph.android.phone2;strokeColor=#c0c0c0;" vertex="1" parent="6EQ5abEMF2fWgEmxgwhL-9">
          <mxGeometry width="200" height="390" as="geometry" />
        </mxCell>
        <mxCell id="_ufjuz95BWD4VMMc1mfV-25" value="" style="group" vertex="1" connectable="0" parent="6EQ5abEMF2fWgEmxgwhL-9">
          <mxGeometry x="9" y="326" width="185" height="30" as="geometry" />
        </mxCell>
        <mxCell id="_ufjuz95BWD4VMMc1mfV-26" value="" style="shape=rect;fillColor=#F6F6F8;strokeColor=none;" vertex="1" parent="_ufjuz95BWD4VMMc1mfV-25">
          <mxGeometry width="185" height="30" as="geometry" />
        </mxCell>
        <mxCell id="_ufjuz95BWD4VMMc1mfV-27" value="" style="group" vertex="1" connectable="0" parent="_ufjuz95BWD4VMMc1mfV-25">
          <mxGeometry x="22" y="4" width="133" height="22.5" as="geometry" />
        </mxCell>
        <mxCell id="_ufjuz95BWD4VMMc1mfV-28" value="" style="html=1;verticalLabelPosition=bottom;align=center;labelBackgroundColor=#ffffff;verticalAlign=top;strokeWidth=2;strokeColor=#0080F0;shadow=0;dashed=0;shape=mxgraph.ios7.icons.star;fillColor=#7EA6E0;" vertex="1" parent="_ufjuz95BWD4VMMc1mfV-27">
          <mxGeometry x="54.03125" y="1.125" width="24.9375" height="20.25" as="geometry" />
        </mxCell>
        <mxCell id="_ufjuz95BWD4VMMc1mfV-29" value="" style="html=1;verticalLabelPosition=bottom;align=center;labelBackgroundColor=#ffffff;verticalAlign=top;strokeWidth=2;strokeColor=#0080F0;shadow=0;dashed=0;shape=mxgraph.ios7.icons.user;" vertex="1" parent="_ufjuz95BWD4VMMc1mfV-27">
          <mxGeometry x="108.0625" width="24.9375" height="22.5" as="geometry" />
        </mxCell>
        <mxCell id="_ufjuz95BWD4VMMc1mfV-30" value="" style="html=1;verticalLabelPosition=bottom;align=center;labelBackgroundColor=#ffffff;verticalAlign=top;strokeWidth=2;strokeColor=#0080F0;shadow=0;dashed=0;shape=mxgraph.ios7.icons.home;" vertex="1" parent="_ufjuz95BWD4VMMc1mfV-27">
          <mxGeometry y="0.375" width="19.950000000000003" height="19.125" as="geometry" />
        </mxCell>
        <mxCell id="6EQ5abEMF2fWgEmxgwhL-7" value="" style="group" vertex="1" connectable="0" parent="6EQ5abEMF2fWgEmxgwhL-9">
          <mxGeometry x="19" y="64" width="162.56" height="231" as="geometry" />
        </mxCell>
        <mxCell id="6EQ5abEMF2fWgEmxgwhL-1" value="" style="verticalLabelPosition=bottom;shadow=0;dashed=0;align=center;html=1;verticalAlign=top;strokeWidth=1;shape=mxgraph.mockup.containers.userMale;strokeColor=#666666;strokeColor2=#008cff;" vertex="1" parent="6EQ5abEMF2fWgEmxgwhL-7">
          <mxGeometry width="51.334736842105265" height="51.333333333333336" as="geometry" />
        </mxCell>
        <mxCell id="6EQ5abEMF2fWgEmxgwhL-2" value="" style="verticalLabelPosition=bottom;shadow=0;dashed=0;align=center;html=1;verticalAlign=top;strokeWidth=1;shape=mxgraph.mockup.containers.userFemale;strokeColor=#666666;strokeColor2=#008cff;" vertex="1" parent="6EQ5abEMF2fWgEmxgwhL-7">
          <mxGeometry y="90.11111111111111" width="52.6181052631579" height="51.333333333333336" as="geometry" />
        </mxCell>
        <mxCell id="6EQ5abEMF2fWgEmxgwhL-3" value="" style="verticalLabelPosition=bottom;shadow=0;dashed=0;align=center;html=1;verticalAlign=top;strokeWidth=1;shape=mxgraph.mockup.containers.userMale;strokeColor=#666666;strokeColor2=#008cff;" vertex="1" parent="6EQ5abEMF2fWgEmxgwhL-7">
          <mxGeometry x="1.2833684210526317" y="179.66666666666666" width="51.334736842105265" height="51.333333333333336" as="geometry" />
        </mxCell>
        <mxCell id="6EQ5abEMF2fWgEmxgwhL-4" value="List Item" style="text;strokeColor=none;fillColor=none;align=left;verticalAlign=middle;spacingLeft=4;spacingRight=4;overflow=hidden;points=[[0,0.5],[1,0.5]];portConstraint=eastwest;rotatable=0;whiteSpace=wrap;html=1;" vertex="1" parent="6EQ5abEMF2fWgEmxgwhL-7">
          <mxGeometry x="94.11368421052632" y="12.833333333333334" width="68.4463157894737" height="25.666666666666668" as="geometry" />
        </mxCell>
        <mxCell id="6EQ5abEMF2fWgEmxgwhL-5" value="List Item" style="text;strokeColor=none;fillColor=none;align=left;verticalAlign=middle;spacingLeft=4;spacingRight=4;overflow=hidden;points=[[0,0.5],[1,0.5]];portConstraint=eastwest;rotatable=0;whiteSpace=wrap;html=1;" vertex="1" parent="6EQ5abEMF2fWgEmxgwhL-7">
          <mxGeometry x="94.11368421052632" y="101.94444444444446" width="68.4463157894737" height="25.666666666666668" as="geometry" />
        </mxCell>
        <mxCell id="6EQ5abEMF2fWgEmxgwhL-6" value="List Item" style="text;strokeColor=none;fillColor=none;align=left;verticalAlign=middle;spacingLeft=4;spacingRight=4;overflow=hidden;points=[[0,0.5],[1,0.5]];portConstraint=eastwest;rotatable=0;whiteSpace=wrap;html=1;" vertex="1" parent="6EQ5abEMF2fWgEmxgwhL-7">
          <mxGeometry x="94.11368421052632" y="192.5" width="68.4463157894737" height="25.666666666666668" as="geometry" />
        </mxCell>
      </root>
    </mxGraphModel>
  </diagram>
</mxfile>
